<svg width="1440" height="231" viewBox="0 0 1440 231" fill="none" xmlns="http://www.w3.org/2000/svg">
<path d="M1411.6 -17.1235C1353.33 -27.9712 1277.31 -29.0504 1205.85 -29.7478C938.362 -32.349 670.874 -34.9451 403.366 -37.5464C298.924 -38.5594 187.555 -39.1295 98.444 -24.8355C15.423 -11.5189 -34.0746 12.9662 -53.4532 37.9348C-72.8319 62.9035 -65.7687 88.6917 -58.6476 114.103C-52.2074 137.02 -45.4375 160.355 -12.9062 181.704C19.6057 203.049 82.5288 222.484 167.087 228.689C223.122 232.802 283.028 230.822 339.764 227.432C466.27 219.873 585.207 205.599 703.114 191.417C857.599 172.837 1012.06 154.252 1166.55 135.671C1284.42 121.495 1419.79 114.093 1472.7 81.7534C1522.18 51.5111 1524.2 3.83902 1411.6 -17.1235Z" fill="#257CB6"/>
</svg>
