<svg width="360" height="231" viewBox="0 0 360 231" fill="none" xmlns="http://www.w3.org/2000/svg">
<path d="M871.604 -17.1235C813.331 -27.9712 737.314 -29.0504 665.851 -29.7478C398.362 -32.349 130.874 -34.9451 -136.634 -37.5464C-241.076 -38.5594 -352.445 -39.1295 -441.556 -24.8355C-524.577 -11.5189 -574.075 12.9662 -593.453 37.9348C-612.832 62.9035 -605.769 88.6917 -598.648 114.103C-592.207 137.02 -585.438 160.355 -552.906 181.704C-520.394 203.049 -457.471 222.484 -372.913 228.689C-316.878 232.802 -256.972 230.822 -200.236 227.432C-73.7302 219.873 45.2073 205.599 163.114 191.417C317.599 172.837 472.063 154.252 626.548 135.671C744.416 121.495 879.795 114.093 932.697 81.7534C982.175 51.5111 984.198 3.83902 871.604 -17.1235Z" fill="#257CB6"/>
</svg>
