<svg width="1440" height="234" viewBox="0 0 1440 234" fill="none" xmlns="http://www.w3.org/2000/svg">
<rect x="0.0828857" width="1440" height="234" fill="#AFD5ED"/>
<path opacity="0.1" d="M858.177 -228.227C790.688 -243.506 711.035 -254.331 642.46 -233.453C523.378 -197.191 503.198 -86.4862 376.794 -62.3679C317.525 -51.059 257.493 -64.2367 198.473 -70.0717C139.454 -75.9066 63.2166 -69.2469 35.0896 -36.6139C8.01517 -5.19938 43.3911 28.9549 82.6761 52.0904C216.562 130.939 414.615 171.988 614.697 162.365C705.325 158.006 798.757 143.858 884.81 155.841C992.361 170.809 1073.47 224.912 1185.53 228.686C1248.9 230.815 1316.08 215.121 1362.54 187.323C1505.98 101.5 1354.48 0.613256 1260.07 -62.9327C1152.24 -135.51 1014.31 -192.888 858.177 -228.227Z" fill="#257CB6"/>
<path d="M800.741 -411.826C723.791 -433.142 633.508 -448.379 558.03 -419.933C426.962 -370.527 412.538 -218.238 272.341 -185.577C206.604 -170.263 138.187 -188.655 71.4537 -196.937C4.72075 -205.218 -80.4228 -196.375 -109.588 -151.578C-137.662 -108.454 -95.38 -61.2934 -49.527 -29.2829C106.743 79.8126 332.28 137.153 556.321 124.755C657.802 119.14 761.704 100.063 859.261 116.921C981.191 137.979 1076.34 212.792 1202.49 218.461C1273.84 221.66 1348.14 200.344 1398.25 162.28C1553 44.7602 1375.29 -94.7436 1264.51 -182.609C1137.98 -282.962 978.761 -362.522 800.741 -411.826Z" fill="#EFF7FB"/>
</svg>
