<svg width="360" height="195" viewBox="0 0 360 195" fill="none" xmlns="http://www.w3.org/2000/svg">
<path d="M-463.954 -53.1235C-409.02 -63.9712 -337.358 -65.0504 -269.988 -65.7478C-17.824 -68.349 234.34 -70.9451 486.523 -73.5464C584.982 -74.5594 689.971 -75.1295 773.977 -60.8355C852.242 -47.5189 898.904 -23.0338 917.172 1.93483C935.441 26.9035 928.782 52.6917 922.069 78.1033C915.998 101.02 909.615 124.355 878.948 145.704C848.299 167.049 788.98 186.484 709.266 192.689C656.442 196.802 599.967 194.822 546.482 191.432C427.223 183.873 315.099 169.599 203.948 155.417C58.3129 136.837 -87.3028 118.252 -232.937 99.6715C-344.053 85.4946 -471.676 78.0931 -521.548 45.7534C-568.191 15.5111 -570.099 -32.161 -463.954 -53.1235Z" fill="#AFD5ED"/>
<path d="M-503.954 -83.1235C-449.02 -93.9712 -377.358 -95.0504 -309.988 -95.7478C-57.824 -98.349 194.34 -100.945 446.523 -103.546C544.982 -104.559 649.971 -105.129 733.977 -90.8355C812.242 -77.5189 858.904 -53.0338 877.172 -28.0652C895.441 -3.09651 888.782 22.6917 882.069 48.1033C875.998 71.0205 869.615 94.3551 838.948 115.704C808.299 137.049 748.98 156.484 669.266 162.689C616.442 166.802 559.967 164.822 506.482 161.432C387.223 153.873 275.099 139.599 163.948 125.417C18.3129 106.837 -127.303 88.2516 -272.937 69.6715C-384.053 55.4946 -511.676 48.0931 -561.548 15.7534C-608.191 -14.4889 -610.099 -62.161 -503.954 -83.1235Z" fill="#257CB6"/>
</svg>
