<svg width="1440" height="195" viewBox="0 0 1440 195" fill="none" xmlns="http://www.w3.org/2000/svg">
<path d="M103.046 -53.1235C157.98 -63.9712 229.642 -65.0504 297.012 -65.7478C549.176 -68.349 801.34 -70.9451 1053.52 -73.5464C1151.98 -74.5594 1256.97 -75.1295 1340.98 -60.8355C1419.24 -47.5189 1465.9 -23.0338 1484.17 1.93483C1502.44 26.9035 1495.78 52.6917 1489.07 78.1033C1483 101.02 1476.62 124.355 1445.95 145.704C1415.3 167.049 1355.98 186.484 1276.27 192.689C1223.44 196.802 1166.97 194.822 1113.48 191.432C994.223 183.873 882.099 169.599 770.948 155.417C625.313 136.837 479.697 118.252 334.063 99.6715C222.947 85.4946 95.3238 78.0931 45.4522 45.7534C-1.19126 15.5111 -3.09855 -32.161 103.046 -53.1235Z" fill="#AFD5ED"/>
<path d="M63.046 -83.1235C117.98 -93.9712 189.642 -95.0504 257.012 -95.7478C509.176 -98.349 761.34 -100.945 1013.52 -103.546C1111.98 -104.559 1216.97 -105.129 1300.98 -90.8355C1379.24 -77.5189 1425.9 -53.0338 1444.17 -28.0652C1462.44 -3.09651 1455.78 22.6917 1449.07 48.1033C1443 71.0205 1436.62 94.3551 1405.95 115.704C1375.3 137.049 1315.98 156.484 1236.27 162.689C1183.44 166.802 1126.97 164.822 1073.48 161.432C954.223 153.873 842.099 139.599 730.948 125.417C585.313 106.837 439.697 88.2516 294.063 69.6715C182.947 55.4946 55.3238 48.0931 5.45216 15.7534C-41.1913 -14.4889 -43.0985 -62.161 63.046 -83.1235Z" fill="#257CB6"/>
</svg>
