<svg width="32" height="32" viewBox="0 0 32 32" fill="none" xmlns="http://www.w3.org/2000/svg">
<path d="M23 2.66669H11C10.2044 2.66669 9.44129 2.94764 8.87868 3.44774C8.31607 3.94783 8 4.62611 8 5.33335V26.6667C8 27.3739 8.31607 28.0522 8.87868 28.5523C9.44129 29.0524 10.2044 29.3333 11 29.3333H23C23.7956 29.3333 24.5587 29.0524 25.1213 28.5523C25.6839 28.0522 26 27.3739 26 26.6667V5.33335C26 4.62611 25.6839 3.94783 25.1213 3.44774C24.5587 2.94764 23.7956 2.66669 23 2.66669ZM18.5 28H15.5V26.6667H18.5V28ZM23 25.3334H11V6.66669H23V25.3334Z" fill="white"/>
</svg>
