<svg width="22" height="24" viewBox="0 0 22 24" fill="none" xmlns="http://www.w3.org/2000/svg">
<path d="M19.6158 8.99978V9.90578C19.6159 10.312 19.5167 10.7107 19.3288 11.0595C19.141 11.4082 18.8715 11.6941 18.5489 11.8868L12.7065 15.3748M2.02917 8.99978V9.90578C2.02916 10.312 2.12834 10.7107 2.31619 11.0595C2.50403 11.4082 2.77354 11.6941 3.0961 11.8868L8.93848 15.3748M8.93848 15.3748L9.8602 14.8248C10.1559 14.6481 10.4866 14.5557 10.8225 14.5557C11.1584 14.5557 11.4891 14.6481 11.7848 14.8248L12.7074 15.3748L16.9102 17.8848M8.93848 15.3748L4.73482 17.8848M19.6158 19.4998C19.6158 20.0965 19.402 20.6688 19.0215 21.0908C18.6409 21.5127 18.1248 21.7498 17.5866 21.7498H4.05841C3.52022 21.7498 3.00408 21.5127 2.62352 21.0908C2.24297 20.6688 2.02917 20.0965 2.02917 19.4998V8.84378C2.02916 8.43754 2.12834 8.03887 2.31619 7.69009C2.50403 7.34131 2.77354 7.05542 3.0961 6.86278L9.8602 2.82378C10.1559 2.64715 10.4866 2.55469 10.8225 2.55469C11.1584 2.55469 11.4891 2.64715 11.7848 2.82378L18.5489 6.86278C18.8713 7.05534 19.1408 7.34107 19.3286 7.68966C19.5164 8.03825 19.6157 8.43671 19.6158 8.84278V19.4998Z" stroke="#232323" stroke-width="1.5" stroke-linecap="round" stroke-linejoin="round"/>
</svg>
