<svg width="1440" height="179" viewBox="0 0 1440 179" fill="none" xmlns="http://www.w3.org/2000/svg">
<path opacity="0.1" d="M649.017 -281.648C736.058 -293.999 838.789 -302.75 927.233 -285.872C1080.82 -256.559 1106.84 -167.069 1269.87 -147.572C1346.31 -138.43 1423.74 -149.083 1499.85 -153.799C1575.97 -158.516 1674.3 -153.133 1710.57 -126.753C1745.49 -101.359 1699.87 -73.7493 1649.2 -55.0472C1476.53 8.69171 1221.09 41.8745 963.039 34.0953C846.154 30.5716 725.651 19.1351 614.667 28.8216C475.956 40.9214 371.341 84.657 226.826 87.7074C145.093 89.4284 58.443 76.7421 -1.47119 54.2711C-186.478 -15.1058 8.92538 -96.6598 130.681 -148.029C269.753 -206.698 447.649 -253.08 649.017 -281.648Z" fill="#257CB6"/>
<path d="M723.093 -430.064C822.337 -447.295 938.778 -459.613 1036.12 -436.618C1205.17 -396.679 1223.77 -273.573 1404.59 -247.171C1489.37 -234.791 1577.61 -249.659 1663.67 -256.354C1749.74 -263.048 1859.55 -255.9 1897.17 -219.687C1933.38 -184.826 1878.84 -146.703 1819.71 -120.827C1618.16 -32.6374 1327.28 13.7146 1038.33 3.693C907.446 -0.846386 773.44 -16.2674 647.618 -2.6399C490.361 14.3831 367.647 74.8591 204.947 79.4418C112.93 82.0279 17.1 64.7967 -47.5334 34.0265C-247.114 -60.9727 -17.9211 -173.744 124.955 -244.772C288.149 -325.894 493.496 -390.208 723.093 -430.064Z" fill="#EFF7FB"/>
</svg>
