<svg width="360" height="179" viewBox="0 0 360 179" fill="none" xmlns="http://www.w3.org/2000/svg">
<path opacity="0.1" d="M171.682 -281.648C258.723 -293.998 361.454 -302.749 449.898 -285.872C603.481 -256.559 629.507 -167.068 792.534 -147.572C868.975 -138.43 946.4 -149.082 1022.52 -153.799C1098.64 -158.516 1196.96 -153.133 1233.24 -126.753C1268.16 -101.358 1222.53 -73.749 1171.87 -55.0469C999.19 8.69195 743.755 41.8748 485.704 34.0955C368.819 30.5718 248.316 19.1354 137.332 28.8218C-1.37951 40.9216 -105.994 84.6572 -250.509 87.7076C-332.242 89.4287 -418.892 76.7424 -478.806 54.2713C-663.813 -15.1056 -468.41 -96.6596 -346.654 -148.028C-207.582 -206.698 -29.6865 -253.08 171.682 -281.648Z" fill="#257CB6"/>
<path d="M245.759 -430.064C345.002 -447.295 461.443 -459.613 558.789 -436.618C727.831 -396.679 746.433 -273.573 927.25 -247.171C1012.03 -234.791 1100.27 -249.659 1186.34 -256.354C1272.41 -263.048 1382.22 -255.9 1419.83 -219.687C1456.04 -184.826 1401.51 -146.703 1342.37 -120.827C1140.83 -32.6374 849.945 13.7146 560.993 3.693C430.111 -0.846386 296.106 -16.2674 170.283 -2.6399C13.0262 14.3831 -109.687 74.8591 -272.388 79.4418C-364.405 82.0279 -460.235 64.7967 -524.868 34.0265C-724.449 -60.9727 -495.256 -173.744 -352.38 -244.772C-189.186 -325.894 16.1612 -390.208 245.759 -430.064Z" fill="#EFF7FB"/>
</svg>
