<svg width="24" height="24" viewBox="0 0 24 24" fill="none" xmlns="http://www.w3.org/2000/svg">
<path d="M10.4297 1.5H8.19478C7.60204 1.5 7.03357 1.73705 6.61444 2.15901C6.19531 2.58097 5.95984 3.15326 5.95984 3.75V20.25C5.95984 20.8467 6.19531 21.419 6.61444 21.841C7.03357 22.2629 7.60204 22.5 8.19478 22.5H15.6446C16.2373 22.5 16.8058 22.2629 17.2249 21.841C17.6441 21.419 17.8795 20.8467 17.8795 20.25V3.75C17.8795 3.15326 17.6441 2.58097 17.2249 2.15901C16.8058 1.73705 16.2373 1.5 15.6446 1.5H13.4096M10.4297 1.5V3H13.4096V1.5M10.4297 1.5H13.4096M10.4297 20.25H13.4096" stroke="#232323" stroke-width="1.5" stroke-linecap="round" stroke-linejoin="round"/>
</svg>
