<svg width="24" height="24" viewBox="0 0 24 24" fill="none" xmlns="http://www.w3.org/2000/svg">
<path d="M14.6486 10.5C14.6486 11.2956 14.34 12.0587 13.7905 12.6213C13.2411 13.1839 12.4959 13.5 11.7189 13.5C10.9419 13.5 10.1967 13.1839 9.64728 12.6213C9.09785 12.0587 8.78918 11.2956 8.78918 10.5C8.78918 9.70435 9.09785 8.94129 9.64728 8.37868C10.1967 7.81607 10.9419 7.5 11.7189 7.5C12.4959 7.5 13.2411 7.81607 13.7905 8.37868C14.34 8.94129 14.6486 9.70435 14.6486 10.5Z" stroke="#232323" stroke-width="1.5" stroke-linecap="round" stroke-linejoin="round"/>
<path d="M19.0433 10.5C19.0433 17.642 11.719 21.75 11.719 21.75C11.719 21.75 4.39465 17.642 4.39465 10.5C4.39465 8.51088 5.16632 6.60322 6.5399 5.1967C7.91348 3.79018 9.77645 3 11.719 3C13.6615 3 15.5245 3.79018 16.8981 5.1967C18.2716 6.60322 19.0433 8.51088 19.0433 10.5Z" stroke="#232323" stroke-width="1.5" stroke-linecap="round" stroke-linejoin="round"/>
</svg>
